<svg width="42" height="42" viewBox="0 0 42 42" fill="none" xmlns="http://www.w3.org/2000/svg">
<path d="M38.997 12.1845C39.0086 11.0789 38.8877 9.97586 38.6369 8.89898C38.1614 6.93366 37.0437 5.43341 35.3664 4.33372C34.5109 3.78438 33.553 3.41388 32.5504 3.24454C31.775 3.11101 30.9907 3.03579 30.204 3.0195C30.144 3.015 30.0795 3.0045 30.018 3H11.9805C11.7525 3.015 11.5259 3.0255 11.2979 3.03901C10.1772 3.10352 9.06251 3.22354 8.00784 3.63911C6.0035 4.43424 4.55726 5.81747 3.70962 7.8098C3.42157 8.48191 3.27155 9.19753 3.16503 9.92215C3.0821 10.509 3.03201 11.1 3.015 11.6924C3.015 11.7405 3.0045 11.7855 3 11.832V30.1695C3.015 30.3796 3.0255 30.5941 3.04051 30.8056C3.11552 32.0283 3.27155 33.242 3.78613 34.3657C4.76129 36.4961 6.39357 37.8958 8.63794 38.5679C9.26805 38.7585 9.92216 38.8485 10.5778 38.91C11.4104 38.9895 12.243 39 13.0787 39H29.6264C30.4139 38.9995 31.2006 38.9494 31.9818 38.85C33.215 38.6909 34.3762 38.3249 35.4249 37.6348C36.6687 36.8307 37.6494 35.6795 38.2454 34.3237C38.5244 33.6936 38.685 33.0185 38.8005 32.3374C38.97 31.3247 39.0075 30.3001 39.006 29.2769C39.003 23.5759 39.006 17.8825 39.0015 12.1845H38.997ZM29.3609 18.1705V26.74C29.3609 27.3656 29.2739 27.9807 28.9948 28.5493C28.5598 29.4344 27.8546 29.9925 26.9125 30.2595C26.3874 30.4096 25.8533 30.4951 25.3072 30.5191C23.882 30.5866 22.6473 29.6189 22.3922 28.2147C22.2851 27.6084 22.3794 26.9837 22.6605 26.436C22.9417 25.8882 23.3944 25.4476 23.9495 25.1812C24.4341 24.9412 24.9547 24.8061 25.4768 24.6951C26.0438 24.5721 26.6139 24.4656 27.178 24.3351C27.5891 24.2405 27.8636 23.99 27.9432 23.5609C27.9635 23.4658 27.9736 23.3687 27.9732 23.2714C27.9732 20.5484 27.9732 17.8255 27.9702 15.1055C27.9692 15.0117 27.9561 14.9184 27.9312 14.828C27.8712 14.6029 27.7061 14.4634 27.4751 14.4769C27.235 14.4919 26.998 14.5294 26.7625 14.5759C25.6223 14.801 24.4821 15.0305 23.3419 15.26L19.8538 15.9652L17.7925 16.3822C17.7685 16.3867 17.7445 16.3972 17.7205 16.4017C17.3049 16.5173 17.1549 16.7063 17.1354 17.1369C17.1324 17.1999 17.1354 17.2659 17.1354 17.3319C17.1324 21.2355 17.1354 25.1392 17.1309 29.0413C17.1309 29.6714 17.0603 30.2955 16.8083 30.8821C16.3912 31.8423 15.6531 32.4424 14.6569 32.732C14.1319 32.882 13.5918 32.972 13.0442 32.99C11.6039 33.044 10.4112 32.0898 10.1637 30.6736C9.95366 29.4554 10.5088 28.1457 11.895 27.5606C12.4306 27.3356 12.9902 27.2125 13.5573 27.0955C13.9878 27.0055 14.4199 26.9215 14.8475 26.83C15.4221 26.7055 15.7221 26.3454 15.7476 25.7588V25.5338C15.7476 21.093 15.7476 16.6493 15.7506 12.2085C15.7506 12.024 15.7701 11.8335 15.8136 11.6534C15.9187 11.2259 16.2232 10.9813 16.6328 10.8763C17.0153 10.7773 17.4054 10.7083 17.794 10.6288C18.8937 10.4037 19.9933 10.1847 21.0945 9.96266L24.5001 9.27255C25.5053 9.07151 26.5104 8.86748 27.5156 8.66794C27.8456 8.60343 28.1787 8.53592 28.5103 8.50892C28.9753 8.47141 29.2949 8.76396 29.3414 9.23204C29.3534 9.34156 29.3594 9.45408 29.3594 9.5666C29.3624 12.4321 29.3624 15.3006 29.3594 18.166L29.3609 18.1705Z" fill="#2F2F2F"/>
</svg>
