<svg width="53" height="53" viewBox="0 0 53 53" fill="none" xmlns="http://www.w3.org/2000/svg">
<g clip-path="url(#clip0)">
<path d="M26.5 0C19.4718 0 12.7314 2.79196 7.76167 7.76167C2.79196 12.7314 0 19.4718 0 26.5C0 33.5282 2.79196 40.2686 7.76167 45.2383C12.7314 50.208 19.4718 53 26.5 53C33.5282 53 40.2686 50.208 45.2383 45.2383C50.208 40.2686 53 33.5282 53 26.5C53 19.4718 50.208 12.7314 45.2383 7.76167C40.2686 2.79196 33.5282 0 26.5 0V0ZM26.5 48.0312C20.7896 48.0312 15.313 45.7628 11.2751 41.7249C7.23721 37.687 4.96875 32.2104 4.96875 26.5C4.96875 20.7896 7.23721 15.313 11.2751 11.2751C15.313 7.23721 20.7896 4.96875 26.5 4.96875C32.2104 4.96875 37.687 7.23721 41.7249 11.2751C45.7628 15.313 48.0312 20.7896 48.0312 26.5C48.0312 32.2104 45.7628 37.687 41.7249 41.7249C37.687 45.7628 32.2104 48.0312 26.5 48.0312V48.0312ZM16.5625 16.5625H36.4375V36.4375H16.5625V16.5625Z" fill="#303841"/>
</g>
<defs>
<clipPath id="clip0">
<rect width="53" height="53" fill="white"/>
</clipPath>
</defs>
</svg>
