<svg width="20" height="18" viewBox="0 0 20 18" fill="none" xmlns="http://www.w3.org/2000/svg">
<g clip-path="url(#clip0)">
<path d="M15 6.29999H12V0.899994H7.99998V6.29999H4.99998L9.99998 10.8L15 6.29999ZM19.338 12.1788C19.128 11.9772 17.727 10.6281 17.327 10.2762C17.0467 10.0344 16.6733 9.89955 16.285 9.89999H14.528L17.592 12.5946H14.048C13.9998 12.5938 13.9523 12.6044 13.9101 12.6255C13.868 12.6465 13.8328 12.6771 13.808 12.7143L12.992 14.4H7.00798L6.19198 12.7143C6.16705 12.6772 6.13178 12.6467 6.08968 12.6257C6.04758 12.6047 6.00011 12.594 5.95198 12.5946H2.40798L5.47098 9.89999H3.71498C3.31798 9.89999 2.93898 10.0431 2.67298 10.2762C2.27298 10.629 0.871981 11.9781 0.661981 12.1788C0.172981 12.6477 -0.0960191 13.0212 0.0319809 13.4829L0.592981 16.2495C0.720981 16.7121 1.28398 17.0919 1.84498 17.0919H18.157C18.718 17.0919 19.281 16.7121 19.409 16.2495L19.97 13.4829C20.096 13.0212 19.828 12.6477 19.338 12.1788Z" fill="#303841"/>
</g>
<defs>
<clipPath id="clip0">
<rect width="20" height="18" fill="white"/>
</clipPath>
</defs>
</svg>
