<svg width="20" height="18" viewBox="0 0 20 18" fill="none" xmlns="http://www.w3.org/2000/svg">
<g clip-path="url(#clip0)">
<path d="M15.0002 6.29999H12.0002V0.899994H8.00023V6.29999H5.00023L10.0002 10.8L15.0002 6.29999ZM19.3382 12.1788C19.1282 11.9772 17.7272 10.6281 17.3272 10.2762C17.0469 10.0344 16.6735 9.89955 16.2852 9.89999H14.5282L17.5922 12.5946H14.0482C14.0001 12.5938 13.9525 12.6044 13.9104 12.6255C13.8682 12.6465 13.833 12.6771 13.8082 12.7143L12.9922 14.4H7.00822L6.19222 12.7143C6.16729 12.6772 6.13202 12.6467 6.08992 12.6257C6.04782 12.6047 6.00035 12.594 5.95223 12.5946H2.40823L5.47123 9.89999H3.71522C3.31822 9.89999 2.93923 10.0431 2.67323 10.2762C2.27323 10.629 0.872225 11.9781 0.662225 12.1788C0.173225 12.6477 -0.0957749 13.0212 0.0322251 13.4829L0.593225 16.2495C0.721225 16.7121 1.28423 17.0919 1.84523 17.0919H18.1572C18.7182 17.0919 19.2812 16.7121 19.4092 16.2495L19.9702 13.4829C20.0962 13.0212 19.8282 12.6477 19.3382 12.1788Z" fill="white"/>
</g>
<defs>
<clipPath id="clip0">
<rect width="20" height="18" fill="white"/>
</clipPath>
</defs>
</svg>
