<svg width="42" height="42" viewBox="0 0 42 42" fill="none" xmlns="http://www.w3.org/2000/svg">
<path d="M21 15.5326C17.9894 15.5326 15.5326 17.9894 15.5326 21C15.5326 24.0105 17.9894 26.4674 21 26.4674C24.0105 26.4674 26.4673 24.0105 26.4673 21C26.4673 17.9894 24.0105 15.5326 21 15.5326ZM37.398 21C37.398 18.7359 37.4185 16.4924 37.2914 14.2324C37.1642 11.6074 36.5654 9.27773 34.6458 7.3582C32.7222 5.43456 30.3966 4.83984 27.7716 4.71269C25.5076 4.58554 23.264 4.60605 21.0041 4.60605C18.74 4.60605 16.4964 4.58554 14.2365 4.71269C11.6115 4.83984 9.28179 5.43866 7.36226 7.3582C5.43862 9.28183 4.8439 11.6074 4.71675 14.2324C4.5896 16.4965 4.61011 18.74 4.61011 21C4.61011 23.26 4.5896 25.5076 4.71675 27.7676C4.8439 30.3926 5.44272 32.7223 7.36226 34.6418C9.28589 36.5654 11.6115 37.1601 14.2365 37.2873C16.5005 37.4144 18.7441 37.3939 21.0041 37.3939C23.2681 37.3939 25.5117 37.4144 27.7716 37.2873C30.3966 37.1601 32.7263 36.5613 34.6458 34.6418C36.5695 32.7182 37.1642 30.3926 37.2914 27.7676C37.4226 25.5076 37.398 23.2641 37.398 21ZM21 29.4123C16.3447 29.4123 12.5876 25.6553 12.5876 21C12.5876 16.3447 16.3447 12.5877 21 12.5877C25.6552 12.5877 29.4123 16.3447 29.4123 21C29.4123 25.6553 25.6552 29.4123 21 29.4123ZM29.7568 14.2078C28.6699 14.2078 27.7921 13.3301 27.7921 12.2432C27.7921 11.1562 28.6699 10.2785 29.7568 10.2785C30.8437 10.2785 31.7214 11.1562 31.7214 12.2432C31.7218 12.5012 31.6712 12.7569 31.5725 12.9954C31.4739 13.2339 31.3292 13.4506 31.1467 13.6331C30.9642 13.8156 30.7475 13.9603 30.509 14.0589C30.2705 14.1575 30.0149 14.2081 29.7568 14.2078Z" fill="#2F2F2F"/>
</svg>
