<svg width="38" height="38" viewBox="0 0 38 38" fill="none" xmlns="http://www.w3.org/2000/svg">
<path d="M34.0896 22.9104L30.875 19.6959V15.4375C30.8713 12.4947 29.7766 9.65776 27.8025 7.47529C25.8284 5.29283 23.1152 3.91986 20.1875 3.62188V1.1875H17.8125V3.62188C14.8848 3.91986 12.1716 5.29283 10.1975 7.47529C8.22341 9.65776 7.12868 12.4947 7.125 15.4375V19.6959L3.91044 22.9104C3.68772 23.1331 3.56257 23.4351 3.5625 23.75V27.3125C3.5625 27.6274 3.68761 27.9295 3.91031 28.1522C4.13301 28.3749 4.43506 28.5 4.75 28.5H13.0625V29.4227C13.0367 30.9292 13.5677 32.3922 14.5537 33.5315C15.5398 34.6707 16.9116 35.406 18.4062 35.5965C19.2318 35.6784 20.0653 35.5865 20.8532 35.3269C21.6411 35.0673 22.366 34.6457 22.9811 34.0891C23.5963 33.5326 24.0882 32.8534 24.4251 32.0953C24.762 31.3373 24.9366 30.5171 24.9375 29.6875V28.5H33.25C33.5649 28.5 33.867 28.3749 34.0897 28.1522C34.3124 27.9295 34.4375 27.6274 34.4375 27.3125V23.75C34.4374 23.4351 34.3123 23.1331 34.0896 22.9104ZM22.5625 29.6875C22.5625 30.6323 22.1872 31.5385 21.5191 32.2066C20.851 32.8747 19.9448 33.25 19 33.25C18.0552 33.25 17.149 32.8747 16.4809 32.2066C15.8128 31.5385 15.4375 30.6323 15.4375 29.6875V28.5H22.5625V29.6875ZM32.0625 26.125H5.9375V24.2416L9.15206 21.0271C9.37478 20.8044 9.49993 20.5024 9.5 20.1875V15.4375C9.5 12.9179 10.5009 10.5016 12.2825 8.71999C14.0641 6.93839 16.4804 5.9375 19 5.9375C21.5196 5.9375 23.9359 6.93839 25.7175 8.71999C27.4991 10.5016 28.5 12.9179 28.5 15.4375V20.1875C28.5001 20.5024 28.6252 20.8044 28.8479 21.0271L32.0625 24.2416V26.125Z" fill="#2F2F2F"/>
</svg>
