<svg width="34" height="34" viewBox="0 0 34 34" fill="none" xmlns="http://www.w3.org/2000/svg">
<path d="M17 2.125C8.78555 2.125 2.125 8.78555 2.125 17C2.125 25.2145 8.78555 31.875 17 31.875C25.2145 31.875 31.875 25.2145 31.875 17C31.875 8.78555 25.2145 2.125 17 2.125ZM21.7846 17.2291L14.533 22.5051C14.4933 22.5336 14.4464 22.5507 14.3976 22.5544C14.3488 22.558 14.2999 22.5482 14.2563 22.5259C14.2127 22.5036 14.1761 22.4697 14.1506 22.4279C14.125 22.3862 14.1114 22.3382 14.1113 22.2893V11.7439C14.1112 11.6949 14.1246 11.6468 14.1501 11.6049C14.1756 11.563 14.2123 11.529 14.2559 11.5066C14.2996 11.4843 14.3486 11.4745 14.3975 11.4782C14.4464 11.482 14.4933 11.4993 14.533 11.5281L21.7846 16.8008C21.8188 16.825 21.8468 16.8571 21.8661 16.8944C21.8854 16.9316 21.8954 16.973 21.8954 17.0149C21.8954 17.0569 21.8854 17.0982 21.8661 17.1355C21.8468 17.1728 21.8188 17.2049 21.7846 17.2291Z" fill="#303841"/>
</svg>
