<svg width="53" height="53" viewBox="0 0 53 53" fill="none" xmlns="http://www.w3.org/2000/svg">
<path d="M26.5 3.3125C13.6951 3.3125 3.3125 13.6951 3.3125 26.5C3.3125 39.3049 13.6951 49.6875 26.5 49.6875C39.3049 49.6875 49.6875 39.3049 49.6875 26.5C49.6875 13.6951 39.3049 3.3125 26.5 3.3125ZM26.5 45.7539C15.8689 45.7539 7.24609 37.1311 7.24609 26.5C7.24609 15.8689 15.8689 7.24609 26.5 7.24609C37.1311 7.24609 45.7539 15.8689 45.7539 26.5C45.7539 37.1311 37.1311 45.7539 26.5 45.7539Z" fill="white"/>
<path d="M37.2346 25.8323L21.9091 14.7044C21.7862 14.6143 21.6407 14.5601 21.4887 14.5478C21.3368 14.5356 21.1845 14.5657 21.0487 14.635C20.913 14.7042 20.7991 14.8098 20.7198 14.9399C20.6405 15.0701 20.5989 15.2197 20.5996 15.3721V37.6279C20.5996 38.3059 21.3656 38.689 21.9091 38.2956L37.2346 27.1677C37.3404 27.0914 37.4266 26.9911 37.486 26.875C37.5454 26.759 37.5764 26.6304 37.5764 26.5C37.5764 26.3696 37.5454 26.241 37.486 26.1249C37.4266 26.0089 37.3404 25.9086 37.2346 25.8323ZM23.9018 32.7679V20.2321L32.5298 26.5L23.9018 32.7679Z" fill="white"/>
</svg>
