<svg width="25" height="24" viewBox="0 0 25 24" fill="none" xmlns="http://www.w3.org/2000/svg">
<path d="M19.2934 16.977C18.8306 16.5284 18.3801 16.0669 17.9425 15.593C17.5749 15.215 17.3535 14.94 17.3535 14.94L14.5865 13.603C15.6943 12.3316 16.3057 10.695 16.306 9C16.306 5.141 13.2029 2 9.38835 2C5.57376 2 2.4707 5.141 2.4707 9C2.4707 12.859 5.57376 16 9.38835 16C11.1306 16 12.7187 15.34 13.9372 14.261L15.2585 17.061C15.2585 17.061 15.5302 17.285 15.9038 17.657C16.2862 18.02 16.7892 18.511 17.2715 19.024L18.6135 20.416L19.2104 21.062L21.3065 18.941L20.6681 18.337C20.2935 17.965 19.7935 17.471 19.2934 16.977ZM9.38835 14C6.66379 14 4.44717 11.757 4.44717 9C4.44717 6.243 6.66379 4 9.38835 4C12.1129 4 14.3295 6.243 14.3295 9C14.3295 11.757 12.1129 14 9.38835 14Z" fill="#303841"/>
</svg>
