<svg width="42" height="42" viewBox="0 0 42 42" fill="none" xmlns="http://www.w3.org/2000/svg">
<path d="M34 5H8C6.35 5 5 6.35 5 8V34C5 35.65 6.35 37 8 37H34C35.65 37 37 35.65 37 34V8C37 6.35 35.65 5 34 5ZM10.5 27H9.5L9 24L9.5 21H10.5L11 24L10.5 27ZM14.5 27H13.5L13 23L13.5 19H14.5L15 23L14.5 27ZM18.5 27H17.5L17 21L17.5 15H18.5L19 21L18.5 27ZM30.788 27L21.37 26.994C21.2709 26.9825 21.1792 26.9358 21.1116 26.8624C21.0441 26.789 21.0052 26.6937 21.002 26.594V15.806C21.002 15.606 21.07 15.506 21.326 15.406C22.1934 15.0689 23.1274 14.9382 24.054 15.0242C24.9807 15.1102 25.8746 15.4106 26.6652 15.9016C27.4558 16.3926 28.1213 17.0608 28.6091 17.8533C29.0969 18.6459 29.3937 19.541 29.476 20.468C29.9929 20.2523 30.555 20.1676 31.1125 20.2214C31.67 20.2751 32.2055 20.4657 32.6717 20.7761C33.1379 21.0865 33.5202 21.5073 33.7847 22.0009C34.0492 22.4946 34.1877 23.0459 34.188 23.606C34.188 25.482 32.664 27 30.788 27V27Z" fill="#2F2F2F"/>
</svg>
