<svg width="42" height="42" viewBox="0 0 42 42" fill="none" xmlns="http://www.w3.org/2000/svg">
<path d="M21.0175 3.53326C11.4012 3.53326 3.5332 11.4013 3.5332 21.0175C3.5332 30.632 11.4012 38.5 21.0175 38.5C30.632 38.5 38.5 30.632 38.5 21.0175C38.5 11.4013 30.7195 3.53326 21.0175 3.53326ZM29.0587 28.7963C28.7105 29.3195 28.098 29.4963 27.5712 29.148C23.4605 26.6105 18.3032 26.0855 12.1835 27.4838C11.5745 27.6623 11.0495 27.2248 10.8745 26.698C10.6977 26.0855 11.1352 25.564 11.662 25.3873C18.3032 23.8998 24.0747 24.514 28.6195 27.3123C29.232 27.573 29.3195 28.2713 29.0587 28.7963ZM31.1587 23.989C30.7195 24.5998 29.9337 24.8623 29.3195 24.4248C24.5997 21.5443 17.4335 20.6658 11.9262 22.4158C11.2297 22.5925 10.4387 22.2408 10.2655 21.5443C10.0887 20.8408 10.4405 20.0533 11.1387 19.8783C17.5192 17.9568 25.389 18.9193 30.807 22.2425C31.332 22.5033 31.5945 23.3765 31.1587 23.989ZM31.332 19.0908C25.7372 15.771 16.3835 15.421 11.0495 17.0853C10.6438 17.2021 10.2087 17.1583 9.83461 16.9627C9.46048 16.7672 9.17606 16.435 9.04045 16.0353C8.92149 15.6291 8.96415 15.1927 9.15952 14.8173C9.35488 14.4419 9.68782 14.1566 10.0887 14.021C16.296 12.1853 26.5247 12.5335 32.9945 16.3853C33.7802 16.821 34.0427 17.871 33.6052 18.6568C33.1677 19.2693 32.1195 19.5283 31.332 19.0908Z" fill="#2F2F2F"/>
</svg>
