<svg width="194" height="163" viewBox="0 0 194 163" fill="none" xmlns="http://www.w3.org/2000/svg">
<path d="M14.628 118.144C18.8907 118.144 22.1567 119.187 24.426 121.272C26.726 123.327 27.876 126.087 27.876 129.552C27.876 131.484 27.462 133.385 26.634 135.256C25.8367 137.127 24.472 138.614 22.54 139.718L30.406 152H22.632L15.502 141.236H11.04V152H4.37V118.144H14.628ZM15.778 134.796C17.1273 134.796 18.17 134.52 18.906 133.968C19.6727 133.385 20.2093 132.711 20.516 131.944C20.8227 131.147 20.976 130.426 20.976 129.782C20.976 129.414 20.9147 128.954 20.792 128.402C20.7 127.819 20.4853 127.237 20.148 126.654C19.8107 126.071 19.2893 125.581 18.584 125.182C17.9093 124.783 16.9893 124.584 15.824 124.584H11.04V134.796H15.778ZM43.8387 152.552C41.3854 152.552 39.3001 152.092 37.5827 151.172C35.8961 150.252 34.6081 148.979 33.7187 147.354C32.8294 145.729 32.3847 143.858 32.3847 141.742C32.3847 139.718 32.9061 137.893 33.9487 136.268C34.9914 134.643 36.3867 133.355 38.1347 132.404C39.8827 131.423 41.8301 130.932 43.9767 130.932C46.8594 130.932 49.2207 131.775 51.0607 133.462C52.9314 135.118 54.1427 137.525 54.6947 140.684L39.9747 145.376C40.9561 146.511 42.2901 147.078 43.9767 147.078C44.6821 147.078 45.3567 146.955 46.0007 146.71C46.6754 146.465 47.3347 146.143 47.9787 145.744L50.8307 150.528C49.7574 151.141 48.5921 151.632 47.3347 152C46.1081 152.368 44.9427 152.552 43.8387 152.552ZM38.7327 141.374C38.7327 141.527 38.7327 141.665 38.7327 141.788L47.5647 138.798C47.2887 138.031 46.8441 137.372 46.2307 136.82C45.6174 136.237 44.6974 135.946 43.4707 135.946C42.0294 135.946 40.8794 136.437 40.0207 137.418C39.1621 138.399 38.7327 139.718 38.7327 141.374ZM76.4405 150.206C75.5512 150.911 74.4318 151.479 73.0825 151.908C71.7638 152.337 70.4605 152.552 69.1725 152.552C65.7378 152.552 62.9778 151.617 60.8925 149.746C58.8378 147.875 57.8105 145.269 57.8105 141.926C57.8105 139.687 58.3165 137.786 59.3285 136.222C60.3405 134.627 61.6592 133.416 63.2845 132.588C64.9405 131.76 66.6732 131.346 68.4825 131.346C70.2918 131.346 71.8558 131.591 73.1745 132.082C74.5238 132.573 75.6738 133.217 76.6245 134.014L73.4965 138.154C73.0672 137.817 72.4692 137.479 71.7025 137.142C70.9665 136.774 70.0925 136.59 69.0805 136.59C67.7618 136.59 66.6272 137.096 65.6765 138.108C64.7258 139.089 64.2505 140.362 64.2505 141.926C64.2505 143.429 64.7412 144.701 65.7225 145.744C66.7345 146.787 68.0685 147.308 69.7245 147.308C71.1352 147.308 72.3005 146.925 73.2205 146.158L76.4405 150.206ZM87.1822 131.898L87.6882 136.498C88.2709 135.333 89.0682 134.336 90.0802 133.508C91.0922 132.649 92.0889 132.005 93.0702 131.576C94.0516 131.116 94.8029 130.886 95.3242 130.886L95.0022 137.326C93.4996 137.142 92.2116 137.387 91.1382 138.062C90.0649 138.737 89.2369 139.626 88.6542 140.73C88.0716 141.834 87.7802 142.969 87.7802 144.134V152H81.3862V131.898H87.1822ZM109.245 152.552C106.792 152.552 104.706 152.092 102.989 151.172C101.302 150.252 100.014 148.979 99.125 147.354C98.2356 145.729 97.791 143.858 97.791 141.742C97.791 139.718 98.3123 137.893 99.355 136.268C100.398 134.643 101.793 133.355 103.541 132.404C105.289 131.423 107.236 130.932 109.383 130.932C112.266 130.932 114.627 131.775 116.467 133.462C118.338 135.118 119.549 137.525 120.101 140.684L105.381 145.376C106.362 146.511 107.696 147.078 109.383 147.078C110.088 147.078 110.763 146.955 111.407 146.71C112.082 146.465 112.741 146.143 113.385 145.744L116.237 150.528C115.164 151.141 113.998 151.632 112.741 152C111.514 152.368 110.349 152.552 109.245 152.552ZM104.139 141.374C104.139 141.527 104.139 141.665 104.139 141.788L112.971 138.798C112.695 138.031 112.25 137.372 111.637 136.82C111.024 136.237 110.104 135.946 108.877 135.946C107.436 135.946 106.286 136.437 105.427 137.418C104.568 138.399 104.139 139.718 104.139 141.374ZM133.245 152.552C131.374 152.552 129.672 152.184 128.139 151.448C126.636 150.681 125.44 149.516 124.551 147.952C123.661 146.388 123.217 144.395 123.217 141.972C123.217 139.703 123.677 137.74 124.597 136.084C125.517 134.428 126.728 133.155 128.231 132.266C129.733 131.346 131.328 130.886 133.015 130.886C135.008 130.886 136.511 131.208 137.523 131.852C138.565 132.496 139.393 133.201 140.007 133.968L140.421 131.898H146.401V152H139.961V149.516C139.654 149.823 139.194 150.221 138.581 150.712C137.998 151.203 137.262 151.632 136.373 152C135.483 152.368 134.441 152.552 133.245 152.552ZM135.085 147.308C137.323 147.308 138.949 146.296 139.961 144.272V139.35C139.593 138.369 138.949 137.587 138.029 137.004C137.139 136.421 136.081 136.13 134.855 136.13C133.475 136.13 132.279 136.651 131.267 137.694C130.255 138.706 129.749 140.025 129.749 141.65C129.749 142.723 129.994 143.689 130.485 144.548C130.975 145.407 131.619 146.081 132.417 146.572C133.245 147.063 134.134 147.308 135.085 147.308ZM154.923 123.066H161.363V131.806H166.239V136.82H161.363V152H154.923V136.82H151.795V131.806H154.923V123.066ZM181.03 152.552C178.577 152.552 176.491 152.092 174.774 151.172C173.087 150.252 171.799 148.979 170.91 147.354C170.021 145.729 169.576 143.858 169.576 141.742C169.576 139.718 170.097 137.893 171.14 136.268C172.183 134.643 173.578 133.355 175.326 132.404C177.074 131.423 179.021 130.932 181.168 130.932C184.051 130.932 186.412 131.775 188.252 133.462C190.123 135.118 191.334 137.525 191.886 140.684L177.166 145.376C178.147 146.511 179.481 147.078 181.168 147.078C181.873 147.078 182.548 146.955 183.192 146.71C183.867 146.465 184.526 146.143 185.17 145.744L188.022 150.528C186.949 151.141 185.783 151.632 184.526 152C183.299 152.368 182.134 152.552 181.03 152.552ZM175.924 141.374C175.924 141.527 175.924 141.665 175.924 141.788L184.756 138.798C184.48 138.031 184.035 137.372 183.422 136.82C182.809 136.237 181.889 135.946 180.662 135.946C179.221 135.946 178.071 136.437 177.212 137.418C176.353 138.399 175.924 139.718 175.924 141.374Z" fill="white"/>
<path d="M103.25 81.25C103.25 88.1562 96.25 93.75 87.625 93.75C79 93.75 72 88.1562 72 81.25C72 74.3438 79 68.75 87.625 68.75C96.25 68.75 103.25 74.3438 103.25 81.25Z" fill="#D3D6DB"/>
<path fill-rule="evenodd" clip-rule="evenodd" d="M103.25 18.75V81.25H97V18.75H103.25Z" fill="#D3D6DB"/>
<path d="M97 17.625C97.0009 16.1807 97.502 14.7812 98.418 13.6646C99.3341 12.548 100.609 11.7831 102.025 11.5L120.775 7.75001C121.681 7.56884 122.617 7.59097 123.513 7.8148C124.41 8.03864 125.246 8.4586 125.961 9.04443C126.676 9.63027 127.252 10.3674 127.648 11.2027C128.044 12.038 128.249 12.9507 128.25 13.875V25L97 31.25V17.625Z" fill="#D3D6DB"/>
</svg>
