<svg width="42" height="42" viewBox="0 0 42 42" fill="none" xmlns="http://www.w3.org/2000/svg">
<path d="M21 2.625C10.8527 2.625 2.625 10.8527 2.625 21C2.625 31.1473 10.8527 39.375 21 39.375C31.1473 39.375 39.375 31.1473 39.375 21C39.375 10.8527 31.1473 2.625 21 2.625ZM29.8307 16.476C29.843 16.6688 29.843 16.8697 29.843 17.0666C29.843 23.0877 25.2574 30.0234 16.8779 30.0234C14.2939 30.0234 11.8986 29.2729 9.88066 27.9809C10.2498 28.0219 10.6025 28.0383 10.9799 28.0383C13.1127 28.0383 15.0732 27.3164 16.6359 26.0941C14.6344 26.0531 12.9527 24.7406 12.3785 22.9359C13.0799 23.0385 13.7115 23.0385 14.4334 22.8539C13.4028 22.6445 12.4764 22.0848 11.8117 21.2698C11.1471 20.4548 10.785 19.4349 10.7871 18.3832V18.3258C11.39 18.6662 12.0996 18.8754 12.842 18.9041C12.2179 18.4882 11.7061 17.9247 11.3519 17.2636C10.9978 16.6025 10.8122 15.8642 10.8117 15.1143C10.8117 14.2652 11.0332 13.49 11.4311 12.8174C12.575 14.2256 14.0024 15.3773 15.6207 16.1978C17.2389 17.0182 19.0116 17.4889 20.8236 17.5793C20.1797 14.4826 22.493 11.9766 25.2738 11.9766C26.5863 11.9766 27.7676 12.5262 28.6002 13.4121C29.6297 13.2193 30.6141 12.8338 31.4918 12.317C31.1514 13.3711 30.4377 14.2611 29.4902 14.823C30.409 14.7246 31.2949 14.4703 32.1152 14.1135C31.4959 15.024 30.7207 15.832 29.8307 16.476Z" fill="#2F2F2F"/>
</svg>
