<svg width="78" height="78" viewBox="0 0 78 78" fill="none" xmlns="http://www.w3.org/2000/svg">
<path d="M65 16.25H56.5955L47.7977 7.45225C47.4965 7.14986 47.1383 6.91005 46.744 6.74663C46.3496 6.5832 45.9269 6.49938 45.5 6.5H32.5C32.0731 6.49938 31.6504 6.5832 31.256 6.74663C30.8617 6.91005 30.5035 7.14986 30.2023 7.45225L21.4045 16.25H13C9.41525 16.25 6.5 19.1653 6.5 22.75V58.5C6.5 62.0848 9.41525 65 13 65H65C68.5848 65 71.5 62.0848 71.5 58.5V22.75C71.5 19.1653 68.5848 16.25 65 16.25ZM39 55.25C30.1925 55.25 22.75 47.8075 22.75 39C22.75 30.1893 30.1925 22.75 39 22.75C47.8075 22.75 55.25 30.1893 55.25 39C55.25 47.8075 47.8075 55.25 39 55.25Z" fill="#D3D6DB"/>
<path d="M42.25 29.25H35.75V35.75H29.25V42.25H35.75V48.75H42.25V42.25H48.75V35.75H42.25V29.25Z" fill="#D3D6DB"/>
</svg>
